[Header]
FileType HTR
DataType HTRS
FileVersion 1
NumSegments 64
NumFrames 4
DataFrameRate 24
EulerRotationOrder ZYX
CalibrationUnits mm
RotationUnits Degrees
GlobalAxisofGravity Y
BoneLengthAxis Y
ScaleFactor 1.0
[SegmentNames&Hierarchy]
Hips	GLOBAL
Spine	Hips
Spine1	Spine
Spine2	Spine1
Neck	Spine2
Head	Neck
LeftEye	Head
RightEye	Head
LeftShoulder	Spine2
LeftArm	LeftShoulder
LeftForeArm	LeftArm
LeftHand	LeftForeArm
LeftHandThumb1	LeftHand
LeftHandThumb2	LeftHandThumb1
LeftHandThumb3	LeftHandThumb2
LeftHandThumb4	LeftHandThumb3
LeftHandIndex1	LeftHand
LeftHandIndex2	LeftHandIndex1
LeftHandIndex3	LeftHandIndex2
LeftHandIndex4	LeftHandIndex3
LeftHandMiddle1	LeftHand
LeftHandMiddle2	LeftHandMiddle1
LeftHandMiddle3	LeftHandMiddle2
LeftHandMiddle4	LeftHandMiddle3
LeftHandRing1	LeftHand
LeftHandRing2	LeftHandRing1
LeftHandRing3	LeftHandRing2
LeftHandRing4	LeftHandRing3
LeftHandPinky1	LeftHand
LeftHandPinky2	LeftHandPinky1
LeftHandPinky3	LeftHandPinky2
LeftHandPinky4	LeftHandPinky3
RightShoulder	Spine2
RightArm	RightShoulder
RightForeArm	RightArm
RightHand	RightForeArm
RightHandPinky1	RightHand
RightHandPinky2	RightHandPinky1
RightHandPinky3	RightHandPinky2
RightHandPinky4	RightHandPinky3
RightHandRing1	RightHand
RightHandRing2	RightHandRing1
RightHandRing3	RightHandRing2
RightHandRing4	RightHandRing3
RightHandMiddle1	RightHand
RightHandMiddle2	RightHandMiddle1
RightHandMiddle3	RightHandMiddle2
RightHandMiddle4	RightHandMiddle3
RightHandIndex1	RightHand
RightHandIndex2	RightHandIndex1
RightHandIndex3	RightHandIndex2
RightHandIndex4	RightHandIndex3
RightHandThumb1	RightHand
RightHandThumb2	RightHandThumb1
RightHandThumb3	RightHandThumb2
RightHandThumb4	RightHandThumb3
LeftUpLeg	Hips
LeftLeg	LeftUpLeg
LeftFoot	LeftLeg
LeftToeBase	LeftFoot
RightUpLeg	Hips
RightLeg	RightUpLeg
RightFoot	RightLeg
RightToeBase	RightFoot
[BasePosition]
Hips	0	0	0	0	0	0	1
Spine	0	0	0	0	0	0	1
Spine1	0	0	0	0	0	0	1
Spine2	0	0	0	0	0	0	1
Neck	0	0	0	0	0	0	1
Head	0	0	0	0	0	0	1
LeftEye	0	0	0	0	0	0	1
RightEye	0	0	0	0	0	0	1
LeftShoulder	0	0	0	0	0	0	1
LeftArm	0	0	0	0	0	0	1
LeftForeArm	0	0	0	0	0	0	1
LeftHand	0	0	0	0	0	0	1
LeftHandThumb1	0	0	0	0	0	0	1
LeftHandThumb2	0	0	0	0	0	0	1
LeftHandThumb3	0	0	0	0	0	0	1
LeftHandThumb4	0	0	0	0	0	0	1
LeftHandIndex1	0	0	0	0	0	0	1
LeftHandIndex2	0	0	0	0	0	0	1
LeftHandIndex3	0	0	0	0	0	0	1
LeftHandIndex4	0	0	0	0	0	0	1
LeftHandMiddle1	0	0	0	0	0	0	1
LeftHandMiddle2	0	0	0	0	0	0	1
LeftHandMiddle3	0	0	0	0	0	0	1
LeftHandMiddle4	0	0	0	0	0	0	1
LeftHandRing1	0	0	0	0	0	0	1
LeftHandRing2	0	0	0	0	0	0	1
LeftHandRing3	0	0	0	0	0	0	1
LeftHandRing4	0	0	0	0	0	0	1
LeftHandPinky1	0	0	0	0	0	0	1
LeftHandPinky2	0	0	0	0	0	0	1
LeftHandPinky3	0	0	0	0	0	0	1
LeftHandPinky4	0	0	0	0	0	0	1
RightShoulder	0	0	0	0	0	0	1
RightArm	0	0	0	0	0	0	1
RightForeArm	0	0	0	0	0	0	1
RightHand	0	0	0	0	0	0	1
RightHandPinky1	0	0	0	0	0	0	1
RightHandPinky2	0	0	0	0	0	0	1
RightHandPinky3	0	0	0	0	0	0	1
RightHandPinky4	0	0	0	0	0	0	1
RightHandRing1	0	0	0	0	0	0	1
RightHandRing2	0	0	0	0	0	0	1
RightHandRing3	0	0	0	0	0	0	1
RightHandRing4	0	0	0	0	0	0	1
RightHandMiddle1	0	0	0	0	0	0	1
RightHandMiddle2	0	0	0	0	0	0	1
RightHandMiddle3	0	0	0	0	0	0	1
RightHandMiddle4	0	0	0	0	0	0	1
RightHandIndex1	0	0	0	0	0	0	1
RightHandIndex2	0	0	0	0	0	0	1
RightHandIndex3	0	0	0	0	0	0	1
RightHandIndex4	0	0	0	0	0	0	1
RightHandThumb1	0	0	0	0	0	0	1
RightHandThumb2	0	0	0	0	0	0	1
RightHandThumb3	0	0	0	0	0	0	1
RightHandThumb4	0	0	0	0	0	0	1
LeftUpLeg	0	0	0	0	0	0	1
LeftLeg	0	0	0	0	0	0	1
LeftFoot	0	0	0	0	0	0	1
LeftToeBase	0	0	0	0	0	0	1
RightUpLeg	0	0	0	0	0	0	1
RightLeg	0	0	0	0	0	0	1
RightFoot	0	0	0	0	0	0	1
RightToeBase	0	0	0	0	0	0	1
[Hips]
40	12.1011982	979.1834717	-24.46800613	7.763168812	10.20961952	-6.90673399	1.0
41	13.18146229	996.8468018	-22.73630142	6.05685091	7.506872654	-6.361902714	1.0
42	12.88909149	1005.526062	-21.1380806	4.180130959	6.468599319	-6.038131237	1.0
43	13.23283958	1010.066284	-19.67414665	2.566856861	5.09424448	-5.791521072	1.0
[Spine]
40	0	101.8159943	1.315000057	5.438509941	5.008605003	2.278496742	1.0
41	0	101.8159943	1.315000057	4.729207993	4.944373131	2.09931612	1.0
42	0	101.8159943	1.315000057	4.160303116	4.12552309	2.160032511	1.0
43	0	101.8159943	1.315000057	3.88348484	3.463663578	2.405222654	1.0
[Spine1]
40	0	100.8349991	-10.00800037	1.850985765	1.054107308	1.373730898	1.0
41	0	100.8349991	-10.00800037	1.597064376	1.091200113	1.356981874	1.0
42	0	100.8349991	-10.00800037	1.400411606	0.8958246112	1.382950783	1.0
43	0	100.8349991	-10.00800037	1.293353796	0.7361337543	1.450402856	1.0
[Spine2]
40	0	91	-13.73399925	1.811222672	1.093422771	1.393429041	1.0
41	0	91	-13.73399925	1.558411717	1.128691077	1.371196628	1.0
42	0	91	-13.73399925	1.36393404	0.9324831367	1.393957257	1.0
43	0	91	-13.73399925	1.258886337	0.7718455791	1.45939827	1.0
[Neck]
40	0	166.7169952	-25.16200066	5.138375282	-2.768222809	-0.6764421463	1.0
41	0	166.7169952	-25.16200066	5.947071552	-2.696540117	0.0366140306	1.0
42	0	166.7169952	-25.16200066	6.375350475	-2.46404767	0.3764291108	1.0
43	0	166.7169952	-25.16200066	6.35494709	-2.105131626	0.3164388835	1.0
[Head]
40	0	96.17900085	16.84999847	-16.28992081	-14.0065136	12.1511898	1.0
41	0	96.17900085	16.84999847	-13.83128357	-12.76644421	10.24649239	1.0
42	0	96.17900085	16.84999847	-11.7617321	-11.41577625	9.137452126	1.0
43	0	96.17900085	16.84999847	-10.18486404	-9.865152359	8.08655262	1.0
[LeftEye]
40	30.6760006	64.09500122	92.83599854	0	0	0	1.0
41	30.6760006	64.09500122	92.83599854	0	0	0	1.0
42	30.6760006	64.09500122	92.83599854	0	0	0	1.0
43	30.6760006	64.09500122	92.83599854	0	0	0	1.0
[RightEye]
40	-30.6760006	64.09500122	92.83499908	0	0	0	1.0
41	-30.6760006	64.09500122	92.83499908	0	0	0	1.0
42	-30.6760006	64.09500122	92.83499908	0	0	0	1.0
43	-30.6760006	64.09500122	92.83499908	0	0	0	1.0
[LeftShoulder]
40	45.70400238	109.4599991	-26.28000069	5.16390419	-16.48169708	-14.28981686	1.0
41	45.70400238	109.4599991	-26.28000069	4.951386452	-16.26339149	-13.19771385	1.0
42	45.70400238	109.4599991	-26.28000069	4.875617981	-16.93008041	-12.58163643	1.0
43	45.70400238	109.4599991	-26.28000069	4.937339306	-17.6213913	-12.72366333	1.0
[LeftArm]
40	105.923996	-5.24600029	-22.32099915	25.98986053	-21.2352066	-58.35809326	1.0
41	105.923996	-5.24600029	-22.32099915	30.34313393	-17.61653709	-60.30482483	1.0
42	105.923996	-5.24600029	-22.32099915	30.16264153	-11.71708012	-62.74537277	1.0
43	105.923996	-5.24600029	-22.32099915	27.39224625	-6.587786198	-64.60622406	1.0
[LeftForeArm]
40	278.414978	-0.0009999999311	0	-2.338560762e-06	-24.84616852	-0.0002108131448	1.0
41	278.414978	-0.0009999999311	0	1.677981686e-06	-26.39853477	-0.0002210343227	1.0
42	278.414978	-0.0009999999311	0	2.716888503e-06	-26.77470016	-0.0002239921596	1.0
43	278.414978	-0.0009999999311	0	3.927037142e-06	-25.54989815	-0.000217036024	1.0
[LeftHand]
40	283.2879944	0	0	-49.6450882	-12.55612469	-6.474950314	1.0
41	283.2879944	0	0	-38.54267883	-14.41822624	-9.14363575	1.0
42	283.2879944	0	0	-32.37790298	-11.53369045	-6.84453249	1.0
43	283.2879944	0	0	-32.3147583	-8.216848373	-2.210781336	1.0
[LeftHandThumb1]
40	24.6609993	-15.75	26.8239994	-0.4901561439	2.198371172	4.817529202	1.0
41	24.6609993	-15.75	26.8239994	-0.4886224568	2.202336788	4.818876743	1.0
42	24.6609993	-15.75	26.8239994	-0.488735795	2.202031612	4.818751335	1.0
43	24.6609993	-15.75	26.8239994	-0.4891091585	2.201080084	4.818429947	1.0
[LeftHandThumb2]
40	32.29800034	-18.64699936	18.64699936	19.08948517	27.36586952	22.60699463	1.0
41	32.29800034	-18.64699936	18.64699936	15.78690815	25.15490913	21.55267143	1.0
42	32.29800034	-18.64699936	18.64699936	13.60611725	23.76799011	21.65148544	1.0
43	32.29800034	-18.64699936	18.64699936	14.15245152	23.08985519	22.113554	1.0
[LeftHandThumb3]
40	26.52600098	-15.31499958	15.31499958	-13.04766178	6.401934624	8.382405281	1.0
41	26.52600098	-15.31499958	15.31499958	-12.80540657	7.630455017	8.0520401	1.0
42	26.52600098	-15.31499958	15.31499958	-12.67770767	8.350803375	8.019153595	1.0
43	26.52600098	-15.31499958	15.31499958	-12.73833275	8.027068138	8.058169365	1.0
[LeftHandThumb4]
40	19.54599953	-11.28499985	11.28499985	0	0	0	1.0
41	19.54599953	-11.28499985	11.28499985	0	0	0	1.0
42	19.54599953	-11.28499985	11.28499985	0	0	0	1.0
43	19.54599953	-11.28499985	11.28499985	0	0	0	1.0
[LeftHandIndex1]
40	91.09299469	-5.170999527	22.60099792	0.5294569135	1.631146669	-14.01278019	1.0
41	91.09299469	-5.170999527	22.60099792	0.2212854624	0.09035474062	-11.08425903	1.0
42	91.09299469	-5.170999527	22.60099792	-0.07105662674	-1.263407588	-8.723666191	1.0
43	91.09299469	-5.170999527	22.60099792	-0.1900155544	-1.672149777	-8.332590103	1.0
[LeftHandIndex2]
40	36.76399994	0	0	-0.2699345946	1.755457163	-17.48224449	1.0
41	36.76399994	0	0	-0.2674212456	1.747448206	-17.39988136	1.0
42	36.76399994	0	0	-0.2654373944	1.741151094	-17.3351059	1.0
43	36.76399994	0	0	-0.2648794949	1.739312291	-17.3162365	1.0
[LeftHandIndex3]
40	28.83100128	0	0	-0.05894543231	0.8280076981	-8.144065857	1.0
41	28.83100128	0	0	-0.05776245892	0.8196991682	-8.061772346	1.0
42	28.83100128	0	0	-0.05684089661	0.8131626248	-7.997056007	1.0
43	28.83100128	0	0	-0.05656374618	0.8112608194	-7.97817421	1.0
[LeftHandIndex4]
40	23.92700005	0	0	0	0	0	1.0
41	23.92700005	0	0	0	0	0	1.0
42	23.92700005	0	0	0	0	0	1.0
43	23.92700005	0	0	0	0	0	1.0
[LeftHandMiddle1]
40	95.33399963	0	0	-0.9427203536	2.240418911	-17.88080978	1.0
41	95.33399963	0	0	-0.8893082738	2.167572021	-17.11989784	1.0
42	95.33399963	0	0	-0.8602231145	2.355036736	-16.69202042	1.0
43	95.33399963	0	0	-0.878420651	2.743945122	-16.94371986	1.0
[LeftHandMiddle2]
40	36.98199844	0	0	-0.2625786662	1.731947422	-17.24052429	1.0
41	36.98199844	0	0	-0.264613837	1.738486528	-17.30779266	1.0
42	36.98199844	0	0	-0.2655800879	1.74159503	-17.33971405	1.0
43	36.98199844	0	0	-0.2662664652	1.743773937	-17.36209869	1.0
[LeftHandMiddle3]
40	29.50900078	0	0	-0.2939952314	1.83005619	-18.25130463	1.0
41	29.50900078	0	0	-0.2961470485	1.836579204	-18.3186264	1.0
42	29.50900078	0	0	-0.2971271276	1.839524388	-18.34910965	1.0
43	29.50900078	0	0	-0.2977813482	1.841511369	-18.36962891	1.0
[LeftHandMiddle4]
40	28.3390007	0	0	0	0	0	1.0
41	28.3390007	0	0	0	0	0	1.0
42	28.3390007	0	0	0	0	0	1.0
43	28.3390007	0	0	0	0	0	1.0
[LeftHandRing1]
40	91.04499817	-0.4390000105	-18.65100098	-1.313942432	2.99333024	-22.86009407	1.0
41	91.04499817	-0.4390000105	-18.65100098	-1.294811249	2.631767988	-22.62409973	1.0
42	91.04499817	-0.4390000105	-18.65100098	-1.215612054	2.638233662	-21.58976936	1.0
43	91.04499817	-0.4390000105	-18.65100098	-1.176788568	2.803957462	-21.072052	1.0
[LeftHandRing2]
40	31.54000092	0	0	-0.39187181	2.103629351	-21.1027298	1.0
41	31.54000092	0	0	-0.3892756104	2.096873045	-21.03172112	1.0
42	31.54000092	0	0	-0.3903923631	2.099793196	-21.06238556	1.0
43	31.54000092	0	0	-0.3915221095	2.102693319	-21.09291649	1.0
[LeftHandRing3]
40	29.37700081	0	0	-0.2878928483	1.811457753	-18.05916214	1.0
41	29.37700081	0	0	-0.2857195437	1.804780602	-17.99033546	1.0
42	29.37700081	0	0	-0.2866626084	1.807697654	-18.02040672	1.0
43	29.37700081	0	0	-0.287579149	1.810517073	-18.04948235	1.0
[LeftHandRing4]
40	26.47500038	0	0	0	0	0	1.0
41	26.47500038	0	0	0	0	0	1.0
42	26.47500038	0	0	0	0	0	1.0
43	26.47500038	0	0	0	0	0	1.0
[LeftHandPinky1]
40	80.77799988	-4.887000084	-38.06099701	-1.986045361	2.783579111	-29.2879982	1.0
41	80.77799988	-4.887000084	-38.06099701	-1.893032789	2.976994038	-28.53202248	1.0
42	80.77799988	-4.887000084	-38.06099701	-1.783316374	3.499145031	-27.75063515	1.0
43	80.77799988	-4.887000084	-38.06099701	-1.728383183	4.011507511	-27.36821365	1.0
[LeftHandPinky2]
40	36	0	0	-0.2745253444	1.769965529	-17.63153458	1.0
41	36	0	0	-0.272762537	1.764414549	-17.57441902	1.0
42	36	0	0	-0.2735024393	1.766782761	-17.59869957	1.0
43	36	0	0	-0.2738486528	1.767833233	-17.60959625	1.0
[LeftHandPinky3]
40	21.14200211	0	0	-0.2473734021	1.682185888	-16.73004341	1.0
41	21.14200211	0	0	-0.2457097918	1.676665187	-16.67354965	1.0
42	21.14200211	0	0	-0.2464493513	1.679098129	-16.69850922	1.0
43	21.14200211	0	0	-0.2467741519	1.68018508	-16.70961571	1.0
[LeftHandPinky4]
40	19.75699997	0	0	0	0	0	1.0
41	19.75699997	0	0	0	0	0	1.0
42	19.75699997	0	0	0	0	0	1.0
43	19.75699997	0	0	0	0	0	1.0
[RightShoulder]
40	-45.70000076	109.4620056	-26.28000069	5.451201916	16.68737221	14.84161758	1.0
41	-45.70000076	109.4620056	-26.28000069	5.283473492	16.84890938	13.93236637	1.0
42	-45.70000076	109.4620056	-26.28000069	5.217799664	16.193964	13.932621	1.0
43	-45.70000076	109.4620056	-26.28000069	5.275896549	15.68616676	14.53098583	1.0
[RightArm]
40	-105.9280014	-5.248000145	-22.32099915	43.30698013	29.77501869	50.97718811	1.0
41	-105.9280014	-5.248000145	-22.32099915	49.38193893	27.79419899	52.81320953	1.0
42	-105.9280014	-5.248000145	-22.32099915	51.68313217	26.1258316	53.68570328	1.0
43	-105.9280014	-5.248000145	-22.32099915	52.36885452	24.16702271	53.75975037	1.0
[RightForeArm]
40	-278.414978	0	0	1.808850902e-05	51.67840195	6.482155641e-06	1.0
41	-278.414978	0	0	-1.204773798e-05	57.38146591	-3.090351811e-06	1.0
42	-278.414978	0	0	-1.50881242e-05	60.53186798	-1.941701157e-06	1.0
43	-278.414978	0	0	9.11770357e-08	61.00267792	2.052378477e-06	1.0
[RightHand]
40	-283.2879944	0	0.0009999999311	-3.791117907	12.57798958	12.75659847	1.0
41	-283.2879944	0	0.0009999999311	-4.878691196	15.82770634	15.54715538	1.0
42	-283.2879944	0	0.0009999999311	-7.993163109	19.99930382	17.57684708	1.0
43	-283.2879944	0	0.0009999999311	-9.740280151	24.02357101	17.72428894	1.0
[RightHandPinky1]
40	-80.76699829	-4.885000229	-38.06000137	-2.122591734	-5.417628765	33.96062088	1.0
41	-80.76699829	-4.885000229	-38.06000137	-2.663765907	-5.493926048	38.82411575	1.0
42	-80.76699829	-4.885000229	-38.06000137	-3.253643751	-5.711299419	44.01103592	1.0
43	-80.76699829	-4.885000229	-38.06000137	-3.841187477	-6.209770203	48.40261459	1.0
[RightHandPinky2]
40	-36	0	0.0009999999311	-0.3318178952	-1.722911954	21.82040215	1.0
41	-36	0	0.0009999999311	-0.5095357299	-2.113456726	27.1255722	1.0
42	-36	0	0.0009999999311	-0.7388791442	-2.511303663	32.80550766	1.0
43	-36	0	0.0009999999311	-0.9974963665	-2.872949839	38.30713272	1.0
[RightHandPinky3]
40	-21.14200211	0	0	-0.3058073521	-1.6564399	20.91869545	1.0
41	-21.14200211	0	0	-0.4773984253	-2.049572468	26.22183609	1.0
42	-21.14200211	0	0	-0.7006169558	-2.450930357	31.90214348	1.0
43	-21.14200211	0	0	-0.9537044168	-2.816682339	37.40539169	1.0
[RightHandPinky4]
40	-19.75699997	0	0	0	0	0	1.0
41	-19.75699997	0	0	0	0	0	1.0
42	-19.75699997	0	0	0	0	0	1.0
43	-19.75699997	0	0	0	0	0	1.0
[RightHandRing1]
40	-91.03599548	-0.4390000105	-18.65100098	-1.335673928	-2.399386406	24.74621582	1.0
41	-91.03599548	-0.4390000105	-18.65100098	-1.814915061	-2.360274315	31.2883091	1.0
42	-91.03599548	-0.4390000105	-18.65100098	-2.319336891	-2.38105607	37.67874146	1.0
43	-91.03599548	-0.4390000105	-18.65100098	-2.729388475	-2.788751602	42.61565781	1.0
[RightHandRing2]
40	-31.54000092	0	0	-0.4911084473	-2.077175856	26.60270882	1.0
41	-31.54000092	0	0	-0.7011730075	-2.451813698	31.91482544	1.0
42	-31.54000092	0	0	-0.958086133	-2.822400331	37.49443817	1.0
43	-31.54000092	0	0	-1.230490565	-3.145321131	42.72359848	1.0
[RightHandRing3]
40	-29.37700081	0	0	-0.3863794506	-1.853458524	23.54929352	1.0
41	-29.37700081	0	0	-0.5759575367	-2.238449812	28.85569572	1.0
42	-29.37700081	0	0	-0.8123688698	-2.621751308	34.42663193	1.0
43	-29.37700081	0	0	-1.066860676	-2.958599806	39.6511116	1.0
[RightHandRing4]
40	-26.47500038	0	0	0	0	0	1.0
41	-26.47500038	0	0	0	0	0	1.0
42	-26.47500038	0	0	0	0	0	1.0
43	-26.47500038	0	0	0	0	0	1.0
[RightHandMiddle1]
40	-95.32500458	0	0	-1.140184879	-0.6505769491	21.96531296	1.0
41	-95.32500458	0	0	-1.56618762	-0.6980771422	28.02274132	1.0
42	-95.32500458	0	0	-2.011029959	-0.9416097999	33.86646652	1.0
43	-95.32500458	0	0	-2.350956917	-1.497994184	38.08867645	1.0
[RightHandMiddle2]
40	-36.98199844	0	0	-0.4150185287	-1.917853355	24.42019844	1.0
41	-36.98199844	0	0	-0.58110708	-2.247741938	28.98707581	1.0
42	-36.98199844	0	0	-0.8050038218	-2.610987186	34.26541901	1.0
43	-36.98199844	0	0	-1.055212259	-2.94451499	39.42494583	1.0
[RightHandMiddle3]
40	-29.50900078	0	0	-0.4498257339	-1.994638801	25.43960571	1.0
41	-29.50900078	0	0	-0.6212439537	-2.320681095	29.99437714	1.0
42	-29.50900078	0	0	-0.8507071733	-2.678828955	35.25644302	1.0
43	-29.50900078	0	0	-1.106165051	-3.007351875	40.40649033	1.0
[RightHandMiddle4]
40	-28.3390007	0	0.0009999999311	0	0	0	1.0
41	-28.3390007	0	0.0009999999311	0	0	0	1.0
42	-28.3390007	0	0.0009999999311	0	0	0	1.0
43	-28.3390007	0	0.0009999999311	0	0	0	1.0
[RightHandIndex1]
40	-91.08300018	-5.167999744	22.60099792	-0.06952337921	1.731135845	6.817126751	1.0
41	-91.08300018	-5.167999744	22.60099792	0.03726394102	0.9675782323	11.66964054	1.0
42	-91.08300018	-5.167999744	22.60099792	0.1013712958	0.3761234581	18.15130234	1.0
43	-91.08300018	-5.167999744	22.60099792	0.203620702	-0.07461874932	23.67815208	1.0
[RightHandIndex2]
40	-36.76399994	0	0	-0.3636085987	-1.800306439	22.83478165	1.0
41	-36.76399994	0	0	-0.5296605825	-2.152369738	27.64736748	1.0
42	-36.76399994	0	0	-0.7505407333	-2.529256582	33.05060959	1.0
43	-36.76399994	0	0	-1.001732469	-2.878338575	38.37224579	1.0
[RightHandIndex3]
40	-28.83100128	0	0	-0.1267970651	-1.077282548	13.42488003	1.0
41	-28.83100128	0	0	-0.2323805839	-1.449854612	18.20985985	1.0
42	-28.83100128	0	0	-0.3882132769	-1.857674479	23.60608864	1.0
43	-28.83100128	0	0	-0.5791228414	-2.244186163	28.93673706	1.0
[RightHandIndex4]
40	-23.92700005	0	0	0	0	0	1.0
41	-23.92700005	0	0	0	0	0	1.0
42	-23.92700005	0	0	0	0	0	1.0
43	-23.92700005	0	0	0	0	0	1.0
[RightHandThumb1]
40	-24.64799881	-15.72700024	26.82600021	-1.654320002	-0.3011795878	-4.225232124	1.0
41	-24.64799881	-15.72700024	26.82600021	-1.660778403	-0.2824800313	-4.219164848	1.0
42	-24.64799881	-15.72700024	26.82600021	-1.65924561	-0.2868863344	-4.220592499	1.0
43	-24.64799881	-15.72700024	26.82600021	-1.65773356	-0.2912707925	-4.22201252	1.0
[RightHandThumb2]
40	-32.29800034	-18.64699936	18.64699936	18.59090614	-13.03576851	-27.80945206	1.0
41	-32.29800034	-18.64699936	18.64699936	18.59111977	-13.04337025	-27.77519798	1.0
42	-32.29800034	-18.64699936	18.64699936	18.60221672	-13.18086052	-27.51308632	1.0
43	-32.29800034	-18.64699936	18.64699936	18.57279015	-13.3224268	-26.97358322	1.0
[RightHandThumb3]
40	-26.52600098	-15.31399918	15.31399918	-14.87167931	-6.871842384	-16.73350334	1.0
41	-26.52600098	-15.31399918	15.31399918	-14.83851147	-6.794015408	-16.00156975	1.0
42	-26.52600098	-15.31399918	15.31399918	-14.73825932	-6.916205883	-15.41724491	1.0
43	-26.52600098	-15.31399918	15.31399918	-14.68939686	-6.856032848	-14.55502319	1.0
[RightHandThumb4]
40	-19.54599953	-11.28499985	11.28499985	0	0	0	1.0
41	-19.54599953	-11.28499985	11.28499985	0	0	0	1.0
42	-19.54599953	-11.28499985	11.28499985	0	0	0	1.0
43	-19.54599953	-11.28499985	11.28499985	0	0	0	1.0
[LeftUpLeg]
40	82.07800293	-67.51699829	-15.99599934	-40.04113388	13.11027527	5.83596611	1.0
41	82.07800293	-67.51699829	-15.99599934	-33.8564949	13.48728275	5.960742474	1.0
42	82.07800293	-67.51699829	-15.99599934	-29.59887314	12.89300537	6.15879631	1.0
43	82.07800293	-67.51699829	-15.99599934	-26.47045326	12.88051701	6.366705894	1.0
[LeftLeg]
40	0	-443.7049866	2.845999956	36.73583603	-8.329579353	-3.813390493	1.0
41	0	-443.7049866	2.845999956	30.24517632	-7.201586246	-1.586411119	1.0
42	0	-443.7049866	2.845999956	26.78133774	-6.353248119	0.04661349952	1.0
43	0	-443.7049866	2.845999956	25.04373741	-5.420968056	1.105484605	1.0
[LeftFoot]
40	0	-444.2789917	-29.8219986	-5.479957104	0.5004008412	-1.999571919	1.0
41	0	-444.2789917	-29.8219986	-3.193146944	0.6524585485	-2.997230768	1.0
42	0	-444.2789917	-29.8219986	-2.010482073	0.6962054968	-3.825592995	1.0
43	0	-444.2789917	-29.8219986	-1.593609214	0.6809416413	-4.330674648	1.0
[LeftToeBase]
40	0	-87.28699493	107.1060028	-4.928525448	4.967722816e-06	-2.373307098e-06	1.0
41	0	-87.28699493	107.1060028	-4.928525448	4.955211352e-06	-1.197651841e-06	1.0
42	0	-87.28699493	107.1060028	-4.928524494	-2.480118837e-06	-6.951138403e-07	1.0
43	0	-87.28699493	107.1060028	-4.928524971	4.984467068e-06	-1.361395107e-06	1.0
[RightUpLeg]
40	-82.07800293	-67.51699829	-15.99599934	-27.41776657	-13.68870068	6.377465725	1.0
41	-82.07800293	-67.51699829	-15.99599934	-22.18788338	-12.32032871	5.91099596	1.0
42	-82.07800293	-67.51699829	-15.99599934	-18.42238426	-11.12530994	5.935434341	1.0
43	-82.07800293	-67.51699829	-15.99599934	-15.71396923	-10.31597805	5.902297497	1.0
[RightLeg]
40	0	-443.7049866	2.861999989	35.39345169	-10.27673817	-2.581091404	1.0
41	0	-443.7049866	2.861999989	28.46709442	-9.761376381	-2.728901625	1.0
42	0	-443.7049866	2.861999989	24.8464222	-9.198759079	-3.703106642	1.0
43	0	-443.7049866	2.861999989	22.89641762	-8.836213112	-4.585136414	1.0
[RightFoot]
40	0	-444.2770081	-29.83799934	-16.2140789	-11.08148479	4.910217762	1.0
41	0	-444.2770081	-29.83799934	-12.52770138	-10.61533165	4.223767757	1.0
42	0	-444.2770081	-29.83799934	-10.76362228	-11.25475407	4.547873497	1.0
43	0	-444.2770081	-29.83799934	-9.756344795	-11.01577568	4.82804203	1.0
[RightToeBase]
40	0	-87.28699493	107.1060028	-7.282877445	6.128118912e-06	1.65047777e-06	1.0
41	0	-87.28699493	107.1060028	-7.282870293	-4.556812655e-06	-1.055315806e-06	1.0
42	0	-87.28699493	107.1060028	-7.282875061	-1.531962698e-05	-6.575033353e-07	1.0
43	0	-87.28699493	107.1060028	-7.282875538	1.539752361e-06	3.996776172e-07	1.0
[EndOfFile]
